<?xml version="1.0" standalone="no"?>
<!DOCTYPE svg PUBLIC "-//W3C//DTD SVG 20010904//EN"
 "http://www.w3.org/TR/2001/REC-SVG-20010904/DTD/svg10.dtd">
<svg version="1.0" xmlns="http://www.w3.org/2000/svg"
 width="700.000000pt" height="700.000000pt" viewBox="0 0 700.000000 700.000000"
 preserveAspectRatio="xMidYMid meet">
<metadata>
Created by potrace 1.11, written by Peter Selinger 2001-2013
</metadata>
<g transform="translate(0.000000,700.000000) scale(0.100000,-0.100000)"
fill="#000000" stroke="none">
<path d="M3455 5874 c-22 -2 -96 -9 -165 -14 -453 -39 -789 -204 -1008 -496
-99 -133 -179 -330 -202 -499 -38 -277 -29 -663 26 -1035 78 -530 289 -1196
451 -1423 l34 -49 -3 -236 c-3 -228 -4 -239 -27 -287 -37 -74 -96 -127 -202
-179 -83 -40 -174 -67 -769 -221 -371 -97 -692 -180 -712 -186 -21 -5 -38 -14
-38 -19 0 -5 64 -75 143 -156 270 -279 551 -491 879 -664 404 -214 814 -338
1293 -392 142 -16 548 -16 690 0 733 83 1356 346 1905 805 139 116 416 396
403 407 -4 4 -161 46 -348 95 -639 165 -970 254 -1050 280 -161 54 -258 122
-310 216 l-30 54 -3 266 -3 265 37 55 c144 211 302 677 399 1179 94 488 117
1093 50 1340 -130 478 -532 797 -1100 874 -119 16 -276 25 -340 20z"/>
</g>
</svg>
